<?xml version="1.0" encoding="UTF-8" standalone="no"?>
<svg width="512" height="512" viewBox="0 0 512 512" xmlns="http://www.w3.org/2000/svg">
  <g transform="translate(96, 46)">
    <!-- Foot outline -->
    <path d="M220 60 C300 80, 320 180, 280 280 C260 340, 160 320, 80 300 C40 290, 20 240, 40 200 C60 160, 100 120, 140 100 C180 80, 200 50, 220 60 Z" 
          fill="none" 
          stroke="#FFA000" 
          stroke-width="8"
          stroke-dasharray="16 8"/>
    
    <!-- Heel -->
    <path d="M80 300 C100 290, 120 290, 140 290" 
          fill="none" 
          stroke="#FFA000" 
          stroke-width="4" 
          stroke-linecap="round"/>
    
    <!-- Ball of foot -->
    <path d="M220 180 C240 190, 260 210, 280 240" 
          fill="none" 
          stroke="#FFA000" 
          stroke-width="4" 
          stroke-linecap="round"/>
    
    <!-- Arch -->
    <path d="M120 290 C140 260, 160 230, 220 180" 
          fill="none" 
          stroke="#FFA000" 
          stroke-width="4" 
          stroke-dasharray="8 4" 
          stroke-linecap="round"/>
    
    <!-- Foot markers -->
    <circle cx="100" cy="290" r="8" fill="#FFA000" fill-opacity="0.5"/>
    <circle cx="220" cy="180" r="8" fill="#FFA000" fill-opacity="0.5"/>
    <circle cx="280" cy="240" r="8" fill="#FFA000" fill-opacity="0.5"/>
    
    <!-- Instructions -->
    <text x="260" y="400" font-family="sans-serif" font-size="24" fill="#333333">Place foot here</text>
    <text x="260" y="430" font-family="sans-serif" font-size="16" fill="#666666">Align heel with marker</text>
  </g>
</svg>