<?xml version="1.0" encoding="UTF-8" standalone="no"?>
<svg width="512" height="512" viewBox="0 0 512 512" xmlns="http://www.w3.org/2000/svg">
  <rect width="512" height="512" rx="128" fill="#FFA000" opacity="0.1"/>
  <g transform="translate(96, 96)">
    <!-- Foot outline -->
    <path d="M220 60 C300 80, 320 180, 280 280 C260 340, 160 320, 80 300 C40 290, 20 240, 40 200 C60 160, 100 120, 140 100 C180 80, 200 50, 220 60 Z" 
          fill="white" 
          stroke="#FFA000" 
          stroke-width="16"/>
    
    <!-- Arch support line -->
    <path d="M80 300 C120 280, 180 260, 240 280" 
          fill="none" 
          stroke="#FFA000" 
          stroke-width="12" 
          stroke-linecap="round"/>
    
    <!-- Measurement lines -->
    <line x1="80" y1="260" x2="120" y2="260" stroke="#FFA000" stroke-width="8" stroke-linecap="round"/>
    <line x1="160" y1="260" x2="240" y2="260" stroke="#FFA000" stroke-width="8" stroke-linecap="round"/>
    
    <!-- Pressure points -->
    <circle cx="100" cy="140" r="16" fill="#FFA000" opacity="0.7"/>
    <circle cx="220" cy="260" r="16" fill="#FFA000" opacity="0.7"/>
  </g>
</svg>